<?xml version="1.0" encoding="UTF-8"?>
<svg id="Layer_1" xmlns="http://www.w3.org/2000/svg" version="1.1" viewBox="0 0 676.8 1000.86">
  <!-- Generator: Adobe Illustrator 30.1.0, SVG Export Plug-In . SVG Version: 2.1.1 Build 136)  -->
  <path d="M216.01,770.26l-7.2.29v28.57s-7.19.14-7.19.14l-.04,21.45-7.18.16v50.22s-7.2.18-7.2.18v57.41s7.09.15,7.09.15l.17,7.11,7.03.07.18,7.16,21.4.02.21,7.18h28.58s.22,7.19.22,7.19l14.2.03.2,7.17,21.45.03.12,7.13,7.09.11.12,7.12,14.28.05.12,7.15,14.28.05.11,7.12,7.17.11-.15,7.13-331.03.07L0,332.21c0-.41.76-1.14.86-1.03h6.33s.01-63.42.01-63.42c0-.4-.07-1.09.12-1.14.29-.07,1.01-.2,1.32-.2l5.74-.11.02-19.76c0-.39.07-1.18.11-1.48s.98-.3,1.45-.3l4.72.06c.17,0,.93-.63.93-.88l-.03-12.53c0-.26.55-1.02.77-1.03l6.4-.07.08-14.29,7.12-.11.05-13.41c0-.38.72-.97,1.09-.97l6,.04.14-7.15,14.21-.08.31-7.19,12.52.04c.71,0,1.74-.36,1.74-.88v-6.3s21.52-.09,21.52-.09l.05-6.28c0-.32.74-.89,1.03-.89h20.51s.1-7.17.1-7.17l42.32-.03.92.78-.16,5.3c0,.24.6,1.13,1.07,1.13l27.62.02.29,7.17,21.47.04.04,12.86c0,.3.06.9.09,1.12.06.33.99.38,1.39.39l5.68.07.05,14.28,7.16.12.03,12.82c0,.29.06.91.1,1.13.06.33.96.33,1.41.35l5.69.2v42.96s7.17.15,7.17.15l.05,14.26,5.9.12.99.03c.27,0,.31.83.3,1.24l-.06,4.83c0,.33.77,1.05,1.12,1.06l13.28.04.05,7.03,7.03.21c.02.14.15.7.15.85l.03,26.77c0,.33-.59,1.14-.9,1.14l-5.26-.1c-.29,0-1.1.64-1.09.96l.09,6.22,7.05.11.2,7.16h34.59c.27,0,.86.07,1.03.1.26.05.26.79.26,1.17l.08,5.91,14.28.05.09,5.67c0,.31.05.89.08,1.11.04.33,1.02.41,1.4.41l12.8-.02.14-7.17,35.89-.04.11-7.09,7.16-.13v-99.37c0-.44-.03-.94-.09-1.11-.08-.25-.78-.26-1.17-.27l-5.92-.08-.03-21.43-6.03-.11c-.25,0-1.16-.55-1.16-1.09,0-5.03.01-13.51.02-19.54,0-.17-.45-.92-.6-.93l-6.6-.17v-93.3s-7.2-.31-7.2-.31V0s331.13,0,331.13,0l.07,77.1-.03,1.69c0,.3-.85.42-1.21.42h-4.91c-.27-.01-.91.08-.95.27s-.12.78-.12,1.05l.07,4.41c0,.46-.44,1.47-.9,1.47l-6.32.05-.03,13.49c0,.7-1.32.95-2.21.92l-3.52-.14c-.46-.02-1.48.47-1.48.9v13.46s-5.21.14-5.21.14l-1.57.04c-.3,0-.42.79-.42,1.17v5.82s-7.19.28-7.19.28v12.26s0,1.03,0,1.03c0,.2-.09.86-.28.88s-.71.06-.97.06l-3.49.04c-.71,0-1.86.13-2.44.21v5.48c-.02.36,0,1.36-.3,1.39s-1.03.07-1.46.08l-5.4.09-.11,7.06-7.14.2-.03,14.22-7.14.13-.1,14.31-7.15.08.06,14.36h5.9c.33-.01,1.17.02,1.18.31l.03,1.45.11,12.66,5.93-.06c.35,0,1.2.48,1.2.97v20.6s7.14.11,7.14.11l.11,21.56h5.89c.36,0,1.16.03,1.18.31.03.33.08,1.08.08,1.47v24.99s-.03,1.14-.03,1.14c0,.43.99.98,1.46.97l1.08-.03,3.4-.11c.45-.01,1.3.5,1.3.9v20.69s7.19.12,7.19.12v86.24s-6.13.15-6.13.15c-.35,0-1.08.54-1.08.82v19.18c.01.4-.02.99-.04,1.18-.03.29-.86.44-1.17.43l-1.04-.02-2.95-.05-1.26-.02-.73.84-.04,13.6h-6.29c-.56,0-.87.99-.88,1.75l-.03,12.64-7.11.06-.1,7.1-7.14.13-.03,28.64-7.19.19v136.37c-1.36,1.12-7.2-.76-7.2,1.23v118.89s0,1.8,0,1.8c0,.44.94.86,1.39.85l3.57-.04,1.63-.02c.37,0,.61.62.61,1.35v52.26s-.06,2.6-.06,2.6c0,.44.58,1.4,1.07,1.41l6.18.09.02,50.2,7.2.3v100.56s-4.23.05-4.23.05h-.96s-1.04.02-1.04.02c-.19,0-.87.08-.89.27l-.07,1.05c-.02.26-.02.63-.02.95v24.5s-.04,1.6-.04,1.6c0,.3-.81.41-1.22.41l-5.72.03c-.04.17-.2.79-.2,1.03l-.06,20.46-5.67.13-1.11.02c-.29,0-.4.83-.4,1.18v5.95s-104.92.02-104.92.02c-.98,0-2.07-.05-2.67-.12-.55-.06-.41-1.68-.41-2.49v-103.51s0-1.25,0-1.25c0-.29.64-.62.94-.62h1.06s5.18-.05,5.18-.05l.03-41.34v-1.18c0-.45-1.15-.68-1.71-.67l-5.42.05-.08-7.82-.03-4.87c0-.37-.05-1.12-.08-1.43-.04-.38-1.19-.3-1.63-.3h-5.39s-.16-14.35-.16-14.35l-1.22-.02h-.98s-.96-.02-.96-.02l-3.97-.16v-1.38s0-.97,0-.97v-4.35s0-.95,0-.95v-.96s0-.96,0-.96v-.96s.01-.97.01-.97v-.97s.02-.96.02-.96c0-.16-.47-.79-.62-.79l-6.58-.09-.05-21.47-5.2-.08c-.48,0-1.85.06-1.89-.39-.04-.55-.09-1.42-.09-2.12v-40.54s-6.47-.17-6.47-.17c-.14,0-.73-.65-.73-.97v-34.11c-.01-1.22-1.92-.91-2.68-.9l-2.53.02c-.39,0-1.28-.08-1.61-.14-.44-.07-.39-1.33-.39-1.89v-17.83c.01-.35-.06-1.17-.1-1.46-.05-.38-1.16-.3-1.63-.3h-3.5c-.37,0-1.24-.07-1.57-.12-.44-.07-.38-1.33-.38-1.92l-.03-26.75-7.15-.02-.05-35.84-7.19-.35v-20.14c0-.37-.03-1.19-.32-1.2l-1.46-.06-.97-.02h-.98s-.97,0-.97,0h-.96s-.93,0-.93,0c-.1,0-.62-.52-.62-.62v-.91s0-3.49,0-3.49v-22.69c0-.31-.38-1.08-.53-1.08h-5.08c-.52-.01-1.43-.02-1.48.28s-.11,1.06-.11,1.52v40.4c-.01.81,1.14,1.01,1.97,1.02l5.23.1v71.78s-7.17.18-7.17.18l-.05,14.26-7.12.13-.07,5.65c0,.37.03,1.38-.28,1.4-.45.04-1.35.09-2,.09h-46.52c-.49,0-1.5-.08-1.5-.4l-.05-2.07-.11-4.71-19.51-.02c-.48,0-1.25-.04-1.61-.07-.33-.03-.4-1.05-.4-1.42l-.02-5.55c-.25-.04-.75-.13-.95-.13l-13.14-.03-.29-1.07v-.93s-.01-3.45-.01-3.45c0-.35-.04-1.12-.06-1.42-.02-.27-.83-.32-1.2-.32l-11.62.02c-.38,0-1.42-.09-1.43-.42l-.05-1.59-.15-5.16-13.36-.07c-.17,0-.93-.61-.93-.71l-.02-4.65-.04-1.51c0-.28-.86-.32-1.19-.32h-13.02s-.15-6.47-.15-6.47l-.75-.75-13.55.03-.07-4,.02-2.61-.92-.62-19.91.03c-.61,0-.82,1.32-.82,1.73l.04,12.49-7.19.3-.04,13.44c0,.17-.31.81-.4.81h-.89s-5.65.04-5.65.04c-.06.25-.2.72-.21.82l-.04.88v1.03s0,.97,0,.97v.96s0,.97,0,.97v.94c0,.08-.36.58-.43.58h-.87s-.96.02-.96.02h-.97s-.96,0-.96,0h-.98s-1.08-.02-1.08-.02c-.28,0-.95.49-.96.75v1.04s0,3.96,0,3.96c0,.33.11,1.39.44,1.4l2.05.06,4.73.13v42.99s-5.69.15-5.69.15l-1.11.03c-.29,0-.4.8-.4,1.22v27.36ZM273.65,539.99l7.1.06.1,7.09,7.12.17.06,7.05,7.1.1.12,7.12,14.28.05.11,7.12,7.09.11.12,7.12,14.28.05.11,7.17,7.12-.04.06-14.28,7.17-.19v-100.5s-7.19-.28-7.19-.28l-.02-28.63-7.14-.13-.1-7.09-7.1-.1-.1-7.1-7.13-.11-.03-14.23-7.16-.19-.06-14.29-14.31-.06-.12-7.15-14.28-.05-.13-7.18-21.51.03-.07,7.1-7.13.18-.08,7.05-14.31.1-.15,7.13-14.26.03-.06,14.29-7.17.22-.02,21.4-7.15.14-.1,14.29-7.15.15.02,14.27,14.32.05.11,7.12,7.09.1.1,7.09,7.1.11.1,7.09,7.09.11.11,7.07,7.12.18.07,7.03,7.13.17.06,7.02,7.15.19.03,14.21,7.16.18.07,7.03,7.13.17.07,7.08Z"/>
</svg>