<?xml version="1.0" encoding="UTF-8"?>
<svg id="Layer_1" xmlns="http://www.w3.org/2000/svg" version="1.1" viewBox="0 0 964.83 388.81">
  <!-- Generator: Adobe Illustrator 30.1.0, SVG Export Plug-In . SVG Version: 2.1.1 Build 136)  -->
  <path d="M729.37,338.42c-.69.01-1.74.18-2.16.3l-.03,14.02-7.13.13-.11,7.08-7.09.11-.11,7.09-7.09.11-.11,7.09-7.09.11-.11,7.09-7.08.11-.15,7.14h-57.42s-.17-7.14-.17-7.14l-7.08-.1-.11-7.13-14.29-.05-.08-7.08-7.13-.17-.07-7.03-7.13-.17-.07-7.03-7.16-.17-.03-14.22-7.15-.18-.07-7.03-7.16-.17-.03-14.22-7.17-.19-.03-14.21-7.17-.19-.03-14.21-7.15-.2-.1-14.29-7.11-.08-.09-14.32-7.11-.08-.09-14.32-7.11-.08-.09-14.32-7.13-.09-.03-21.48-7.16-.12-.05-14.28-7.12-.1-.1-7.12h-7.09s-.11,7.14-.11,7.14l-14.28.05-.12,7.15-14.27.06-.13,7.15-21.46.04-.14,7.14-14.29.1-.17,7.14-21.41.02-.13,7.15-14.28.1-.18,7.14h-28.6s-.14,7.16-.14,7.16l-14.31.1-.07,7.07-7.14.18-.06,7.02-7.13.18-.09,7.08-28.71.03-.03,14.34,7.19.08.02,57.47-7.18.19-.05,28.69-7.07.07-.25,7.16h-50.16s-.11-7.19-.11-7.19l-71.86-.02-.15-7.16-28.69-.05-.1-7.14-21.51-.07-.04-6.4-.75-.86-6.43.2-.08,7.04-14.31.1-.13,7.14H28.92s-.17-7.09-.17-7.09l-7.14-.17v-14.28s7.09-.07,7.09-.07l.19-7.15,14.27-.06.07-7.12,14.26-.07.2-7.13,7.01-.07.2-7.16,28.65-.03.1-7.18h136.65s.19-7.17.19-7.17l7.11-.07.02-35.89-7.19-.16-.02-28.65-7.16-.13-.05-14.28-7.12-.11-.1-7.1-7.1-.1-.1-7.1-7.1-.1-.1-7.1-7.1-.1-.1-7.14-7.13.04-.03,28.67-7.17.14-.04,21.46-7.15.14-.05,14.27-7.12.12-.11,7.12-14.3.05-.04,7.13,7.18.07v21.55s-7.12.06-7.12.06l-.11,7.15-7.14-.03-.02-28.7h-7.17s-.03,28.74-.03,28.74l-21.52.02-.13-7.17-7.08-.02-.11,7.15-7.1.02-.11-7.16-14.31-.05-.06-14.35-14.32-.05-.08-7.08-7.13-.16-.07-7.06-7.14-.06-.06,14.34-7.14.04-.06-7.1-7.16-.17-.02-21.41-7.15-.2-.07-7.02-7.17-.2v-42.97s-7.19-.23-7.19-.23l-.03-14.22-7.13-.11-.11,7.19h-7.15s.01-14.32.01-14.32l7.18-.12v-14.27s-7.19-.14-7.19-.14l-.02-28.66-7.19-.13v-14.29s7.19-.08,7.19-.08l.02-64.68,7.14-.16.11-7.07,7.12-.12.06-14.28,7.12-.11.12-7.12,14.29-.05.07-7.07,7.13-.18.06-7.03,7.06-.14L57.71,0h64.66s.08,7.18.08,7.18l14.29.05.11,7.12,7.09.1.1,7.09,7.1.11.1,7.09,7.1.11.1,7.09,7.09.11.12,7.12,14.28.05.11,7.12,7.13.12.03,21.47,7.08.1.18,7.09,7.1.18.06,7.07,7.04.03.25-7.19h13.27c.24,0,.98-.55.99-.71l.11-6.48,35.1-.04.82.75.1,6.46,50.27.03.1,7.16,28.69.05.14,7.17h71.02c.28,0,.88-.74.89-1.04l.04-6.12,14.3-.07.07-7.06,7.13-.18.07-7.07,14.33-.1.08-7.05,7.13-.18.06-7.01,7.15-.22.02-6.19c0-.34.75-.93,1.09-.93l6.06-.02.13-7.11,7.08-.11.11-7.09,7.09-.11.12-7.12,14.27-.05.13-7.14,14.26-.06.19-7.17h71.86s.07,7.19.07,7.19l14.24.03.18,7.15,7.01.07.21,7.14,6.13.03c.19,0,.95.44.95.59l.09,6.54,6.18.09c.18,0,.95.42.95.57l.05,6.54,7.13.11.03,12.88c0,.56.49,1.49,1.01,1.5l6.18.06.03,28.66,7.17.14.05,21.47,6.42.06c.34,0,.77.81.77,1.25v20.3s7.13.09,7.13.09l.09,14.31,7.15.12v21.36s6,.2,6,.2c.39.01,1.23.36,1.22.85l-.03,11.98c0,.5.08,1.41.41,1.47s1.25.18,1.62.16l5.19-.23-.03-6.05c0-.22.57-.97.75-.97l6.39-.06.16-7.1,7.08-.11.11-7.09,7.1-.11.07-7.02,7.13-.27.02-1.37.1-5.66,6.11-.02c.25,0,1.04-.53,1.04-.71l-.07-5.2c0-.29.43-1.28.74-1.28l6.39-.07.26-7.13,6.93-.05.09-1.05c.02-.25.04-.65.04-.89v-1.02s0-.96,0-.96v-.95s0-9.61,0-9.61v-.96s0-.96,0-.96v-.96s0-1,0-1v-2.36c0-.14-.33-.77-.37-.82l-6.81-.08-.02-20.27c0-.25-.04-.79-.06-.97s-.54-.28-.72-.28l-6.41-.07v-14.31s5.5-.01,5.5-.01c.7,0,1.72-.35,1.72-.91l-.03-10.78c0-.45.01-.95.04-1.45l.05-1.02c0-.19.7-.27.96-.27l6.07-.02.12-6.77c.6-.33,2.6-.48,3.86-.44l1.53.04,1.03.02c.29,0,.77-.78.77-1.16l-.03-11.96c0-.34-.05-1.03.14-1.09.28-.08,1.01-.22,1.35-.22l5.69-.04.05-28.71,7.1-.09.16-14.36,5.35-.02h.93c.15,0,.82.27.83.42,0,.12,0,.62,0,.94l-.03,4.73c0,.38.77,1.15,1.15,1.15l6.04-.02.07,14.32-7.21.14v28.69s12.66.09,12.66.09c.73,0,1.74-.37,1.74-.95l.03-6.24,7.11-.11.1-7.09,4.44-.06c.65,0,1.96.12,2.39-.2.51-.38.34-1.97.33-2.73v-1.08s-.05-2.4-.05-2.4c0-.29.8-.83,1.08-.82l5.37.04c.56,0,.86-1.34.84-2.02l-.1-4.29c0-.32.82-.93,1.12-.93l5.36.05c.55,0,.84-1.4.83-1.94l-.07-3.09c0-.43.09-1.48.16-1.89s1.35-.31,1.9-.3l4.23.04c.17,0,.9-.59.9-.78l.12-6.44,41.31-.02c.42,0,1.21.07,1.51.11.38.05.27,1.16.27,1.63l.09,5.46h16.88s3.82,0,3.82,0c.41,0,.85.84.85,1.26l.03,5.92,14.32.1.09,7.13,19.78.02c.37,0,1.14.05,1.45.07.28.02.29.81.29,1.18l.06,5.92h5.94c.36-.01,1.24.45,1.24.83l-.05,4.83c0,.46.09,1.46.43,1.48.37.02,1.1.06,1.59.06l5,.05c.07.45.18,1.52.19,2.21l.07,4.67c.21.07,1,.3,1.11.3h3.25s1,0,1,0l1.48.06c.28.01.31.81.31,1.17v3.51c0,.54.07,1.58.14,2.04.08.55,1.74.42,2.31.42h1.01s9.72-.04,9.72-.04c.38,0,1.25.38,1.25.71v1.13s-.05,4.58-.05,4.58c0,.66,1.6.82,2.47.83l4.74.07v5.63c0,.33.09,1.4.42,1.41l1.59.04,3.45.07,1.45.03c.28,0,.29.82.29,1.19l.06,5.89,7.12.11.07,12.87c0,.46-.43,1.47-.8,1.47h-13.53s-.18,7.19-.18,7.19h-47.76s-1.02.02-1.02.02l-1.15.04c-.29.01-.35.79-.36,1.2l-.12,5.93h-1.26s-4.8-.02-4.8-.02c-.31,0-1.08.61-1.08.91l.03,6.15-7.2.31v14.11s-6.18.21-6.18.21c-.29,0-.92.02-.93.21s-.05.71-.05.99l-.09,5.9-7.07.05-.12,14.3-5.16.12-1.6.04c-.41,0-.37,1.14-.38,1.67l-.04,2.95-.03,2.48-6.14.02c-.25.11-1.07.55-1.01.51v1.25s0,3.47,0,3.47l-.04,1.56c0,.3-.81.4-1.2.41l-5.91.05-.07,5.67c0,.35.03,1.36-.27,1.38s-1.04.08-1.46.08l-5.4.09-.11,7.06-7.12.18-.06,7.04-7.12.12-.1,14.3-7.11.12v1.21s-.02.98-.02.98v.97s-.03,1.01-.03,1.01l-.07,2.54c-.01.53-1.55.4-2.13.4h-1.04s-.96,0-.96,0h-.96s-.96,0-.96,0c-.78,0-1.07.18-1.07.86v.93s0,1.01,0,1.01l.03,3.28c0,.2-.43,1.08-.63,1.09l-6.56.08-.08,14.28-7.15.12v12.87c0,.48-.37,1.47-.86,1.47l-6.31.04-.07,14.3-7.03.08-.27,7.17h-5.1s-1.22-.05-1.22-.05l-.79.83.07,12.78c0,.51-1.05.89-1.73.89l-5.47.02-.06,14.27-7.13.19-.13,7.08h-5.63c-.31,0-1.37,0-1.38.29l-.05,1.47-.17,5.44-5.15-.05c-.6,0-1.93.25-1.93.82v13.46s-6.34.19-6.34.19c-.53.02-.91.94-.9,1.66l.06,5.37-4.74.17-2.07.07c-.52.02-.39,1.51-.39,2.12l-.06,4.92-4.98.08ZM108.01,251.98l-.06-7.16-7.16.06.03,7.12,7.19-.02Z"/>
</svg>