<?xml version="1.0" encoding="UTF-8"?>
<svg id="Layer_1" xmlns="http://www.w3.org/2000/svg" version="1.1" viewBox="0 0 763.2 957.62">
  <!-- Generator: Adobe Illustrator 30.1.0, SVG Export Plug-In . SVG Version: 2.1.1 Build 136)  -->
  <path d="M231.78,763.22c-.4,0-1.35-.49-1.35-.75l-.15-6.43-21.42-.04-.12-7.16-14.28-.05-.11-7.15h-7.13s-.01,14.32-.01,14.32l7.14.11.1,7.1,7.05.07.17,7.09,7.12.19.03,14.21,7.17.19.03,14.21,7.18.19v14.22s-7.18.13-7.18.13l-.04,21.46-7.16.14-.04,21.45-7.18.17v79.07s-21.59.09-21.59.09v7.11s7.15.1,7.15.1v7.09s-7.1.11-7.1.11l-.15,7.14h-64.62s-.18-7.13-.18-7.13l-7.1-.14-.05-28.71-14.37-.04v-21.52s7.15-.12,7.15-.12l.11-7.09,7.13-.11.03-14.23,7.13-.15.1-14.29,7.1-.12.11-7.1,7.11-.06.05-21.45,7.15-.22.03-7.01-7.19-.18v-21.4s7.18-.21,7.18-.21l.02-14.2-7.19-.19-.03-14.21-7.15-.18-.07-7.03-7.16-.17-.03-14.22-7.15-.18-.06-7.03-7.13-.17-.07-7.03-7.13-.17-.07-7.03-7.13-.17-.07-7.03-7.16-.17-.03-14.22-7.16-.19-.05-14.28-7.11-.03-.11,7.16-14.28.05-.12,7.14-7.11.03-.06-7.09-7.14-.16-.07-7.03-7.16-.17-.03-14.22-7.15-.18-.07-7.03-7.15-.17-.04-14.26-14.38-.14v-93.44s7.16-.17,7.16-.17l.05-13.45c0-.32.71-.88,1-.89l6.17-.08v-13.39c.01-.36.75-.94,1.09-.94l6.12-.05.03-21.41,7.16-.21.08-14.27,6.26-.03c.33,0,.92-.75.92-1.06l-.03-13.22,7.18-.23.05-14.25,7.13-.13.05-13.31c0-.26.51-1.02.71-1.02l6.41-.03.07-13.36c0-.45.71-1.03,1.11-1.03l6.03-.02.08-7.05,7.16-.23v-13.35c0-.38.73-.96,1.11-.96h6.05s.08-7.09.08-7.09l7.12-.13.1-14.3,7.13-.13.06-14.27,7.14-.13.05-14.27,7.15-.14.04-21.46,7.17-.13.02-21.42,7.16-.15.05-21.44,7.14-.17.07-21.5,7.11-.09.1-14.31,7.1-.12.11-7.09,7.09-.11.12-7.12,14.27-.05.13-7.15,14.27-.05.12-7.16,14.32-.02.02-50.23,7.14-.21.07-14.24-7.16-.13v-14.38s6.21.04,6.21.04c.23,0,.93-.57.93-.97l.02-26.37c0-.64.03-1.02.06-1.21s.73-.27.92-.27l6.2-.03.02-64.59,6.18-.22c.27,0,1-.49,1.01-.71l.05-6.38,7.09-.11.12-14.32,6.16-.04c.22,0,1-.51,1-.69l-.04-5.57c0-.18.55-.93.72-.93l5.14-.03c.43,0,.9-.04,1.09-.06s.26-.7.26-.91l.07-6.16,7.06-.06.14-7.07,5.86-.17,1.01-.03c.19,0,.26-.7.26-.92l.09-6.16,14.29-.08.04-6.29c0-.48,1.02-.92,1.41-.91l5.68.06.2-7.2h27.41c.26-.01.84-.08,1.03-.11s.22-.65.23-.9l.15-6.17L315.73,0c.28,0,1.07.44,1.07.6v6.59s34.7.04,34.7.04c.52,0,1.31.37,1.31.79l.04,6.38,14.25.05.18,7.17,14.21.03.19,7.13,7.09.13.02,6.13c0,.46.99,1.04,1.44,1.04h5.76s.05,14.3.05,14.3l7.17.12-.02,12.87c0,.54.51,1.47,1.02,1.48l6.19.08.02,43.03,7.18.16.02,28.65,7.18.15v28.65s-7.16.14-7.16.14l-.02,7.1,7.17.06.04,35.89,7.17.16.04,21.47,5.95.05c.4,0,1.28.44,1.27.92l-.09,6.19-7.16.23.02,14.26,14.26.03.22,7.16,6.11.02c.22,0,.98.48.98.76l.02,13.51,7.16.27.06,7.02,7.11.1.1,7.09,7.1.11.1,7.09,7.12.11.05,14.28,7.12.12.1,7.08,5.4.1,1.44.03c.27,0,.31.83.31,1.21l.02,13.07,7.13.12.1,7.09,7.1.11.1,7.09,7.13.11.03,12.34c0,.43.06,1.27.11,1.6.06.44,1.35.36,1.87.38l5.18.12.07,7.03,7.13.17.07,7.03,7.14.17.06,7.05,7.08.09.07,6.04c0,.4.73,1.15,1.13,1.15l5.96-.03.2,7.12,7.09.17.08,7.08,14.24.03.19,7.16,14.26.05.11,7.13,7.02.07.28,7.14,7.04.11v1.27s-.03,4.74-.03,4.74c0,.38.77,1.11,1.14,1.11l6.05.08.09,7.08,7.05.06.17,7.12,7.04.11.09,5.96c0,.26.55,1.18.76,1.19l6.35.05.16,7.11,6.97.09c.04.21.14.74.14.88l.03,4.74c0,.34.05.92.1,1.14.06.33,1,.41,1.38.41h5.61s.18,7.16.18,7.16l14.24.06.21,7.16,6.99.04.07,6.1c0,.33.74,1.1,1.09,1.1l6-.03.2,7.17,14.25.05.1,5.67c0,.31.05.89.07,1.11.04.33,1,.39,1.4.39l5.6.06.25,7.14,14.2.02.04,6.23c0,.64,1.21.96,1.98.97l5.23.09v14.15s7.14.19,7.14.19l.08,12.8c0,.36.04.92.07,1.14.05.33,1.02.41,1.38.41h5.61s.15,5.67.15,5.67l.05,1.13c.01.33,1.01.35,1.42.36l5.68.15v12.79c0,.24.07.88.11,1.1.06.33.96.41,1.45.41l4.89-.03c.51,0,.77,1.13.77,1.74l-.02,12.61,7.17.12.05,14.27,7.17.14v26.71c.01.45-.03,1.24-.06,1.62-.03.41-1.16.44-1.68.43l-4.57-.11-.89.86-.02,20.79-7.15.08-.06,14.31-14.35.1-.02,5.66c0,.33.01,1.38-.29,1.39l-1.95.06-4.95.15v5.6c0,.34,0,1.35-.31,1.38-.43.04-1.44.1-1.93.1h-19.21s-.22,5.69-.22,5.69c-.02.39.07,1.39-.23,1.41-.43.03-1.42.09-1.97.09l-18.36.03c-.49,0-1-.94-1-1.51l.02-20.05-14.13-.08c-.07.22-.27.88-.27.98v5.17c-.01.31-.09.94-.27.97s-.78.1-1.02.1h-12.97s-.2,7.13-.2,7.13l-14.04.12c-.06.14-.31.84-.31.94v6.13s-12.4.12-12.4.12l-1.58.02c-.31,0-.41.8-.41,1.18l-.05,5.93h-5.74c-.4,0-1.43.43-1.43.8l-.02,6.35-7.14.15v5.71c0,.41-.39,1.45-.92,1.45l-11.97-.05c-.58,0-1.54.4-1.55.78l-.02,6.36-6.17.11c-.24,0-.87.05-.9.24s-.09.76-.09,1.02l-.03,5.84-12.87.1c-.39,0-1.38-.05-1.41.25-.03.32-.08,1.05-.08,1.45l-.05,3.48-.02,1.59c0,.3-.8.4-1.19.4l-5.93.05v5.74c.01.4-.39,1.45-.95,1.44l-11.94-.05c-.55,0-1.56.4-1.56.81l.03,4.85c0,.48.01,1.44-.29,1.47s-1.05.08-1.45.09l-5.41.08-.07,5.13c0,.46.15,1.87-.27,1.89l-1.95.09-4.95.16v5.6c0,.35,0,1.31-.29,1.36s-1.12.14-1.45.14l-11.21-.05c-.46,0-1.46.4-1.46.88l-.02,6.26-5.18.11-1.58.04c-.3,0-.37.75-.38,1.2l-.14,5.88-7.1.16.02,13.45c0,.69-1.33.89-2.23.88l-4.72-.06c-.12.6-.26,1.82-.26,2.8v39.35c0,.34.71,1.09,1.16,1.09l6.01.03.06,14.2,2.45.12,4.69.11.04,14.05c.3.08,1.04.29,1.18.29l4.79-.08c.36,0,1.24.49,1.24.89l-.03,4.79c0,.38.06.96.11,1.18.08.32.98.4,1.42.4h11.55c.27-.01.87.05,1.05.09.26.05.26.78.27,1.16l.05,5.9,7.15.06.02,50.27-7.14.17-.04,2.71c-.01,1-.02,2.5-.01,3.48,0,.6-1.01.95-1.72.96l-5.45.04-.08,6.36c0,.13-.32.77-.4.77h-.93s-54.15,0-54.15,0h-14.01c-1.27,0-2.48.34-2.48-1.07v-48.47c.01-.15-.24-.85-.39-.85-.18,0-.66,0-.89,0h-3.95c-.39-.01-1.25-.08-1.58-.13-.44-.06-.38-1.34-.38-1.92l-.03-26.69-1.26-.02-5.92-.24v-13.31c0-.09-.12-.76-.13-.76l-.73-.09-.92-.02-.98-.02-3.56-.08-.88.91v55.21c0,.75.39,1.6.82,1.59l2.59-.03h1.06c.28-.02.64,0,.94.01l1.48.1c.38.02.31,1.2.31,1.63v12.48c-1.25.11-2.75.21-4.2.21l-9.22-.04-1,.69v6.53s-14.38-.03-14.38-.03v-78.96s-5.21-.26-5.21-.26c-.5-.02-1.86.11-1.89-.34-.04-.52-.1-1.48-.1-2.08v-9.19s0-1.02,0-1.02c0-.45.06-1.62-.31-1.63l-1.93-.05-4.95-.14v-18.8c-.01-.65-.07-1.77-.12-2.39-.04-.51-1.59-.24-2.12-.26l-4.99-.2.03-6.94,7.19-.19v-26.45c0-.95.14-2.27.81-2.27h6.26s.18-5.42.18-5.42l.05-1.48c0-.3,1.06-.27,1.4-.28l12.83-.03.11-5.44c0-.43.05-1.15.07-1.46s1.05-.29,1.38-.29l4.48.02c.37,0,1.15-.12,1.17-.42.03-.35.11-1.26.1-1.59l-.19-5.19-20.57-.03c-.54,0-.95,1.03-.94,1.69l.06,3.1c0,.43-.06,1.54-.1,2.02-.05.52-1.48.4-2.2.4h-40.83s-.1,7.15-.1,7.15l-21.39.08-.25-5.47-.06-1.46c-.01-.27-.77-.3-1.13-.3h-1.02s-12.08-.02-12.08-.02l-.09-4.94-.03-.96-.04-1c0-.27-.83-.29-1.23-.29h-29.27s-11.11,0-11.11,0c-.37,0-1.37-.02-1.4.28s-.08,1.05-.08,1.45l-.08,5.41-7.08.11-.09,4.61c-.01.59.25,2.31-.28,2.38s-1.68.15-2.47.15h-46.24ZM165.56,504.05l.09,7.15,14.29.05.11,7.12,7.09.1.12,7.14h14.28s.12-7.15.12-7.15l7.09-.11.11-7.08,7.15-.14-.04-21.49-7.16-.1-.02-28.66-7.17-.14-.03-21.46-7.16-.14-.07-21.5-7.15-.08-.02-21.45-7.15-.09-.1,14.35-7.13.14-.02,14.23-7.15.12-.06,14.28-7.1.13-.18,7.12-7.07.08-.05,14.26-7.15.21-.08,14.24-7.13.12-.06,7.06-7.11.1-.1,7.09-7.14.11.04,7.14,28.68.02.13,7.16,14.3.05ZM583.19,504.06l-21.53-.06-.09-7.12-14.31-.09-.12-7.11-7.09-.1-.11-7.13-14.28-.05-.12-7.12-7.07-.1-.17-7.13-7.06-.06-.06-7.06-7.12-.17-.11-7.08-7.1-.1-.1-7.1-7.12-.11-.05-14.29-7.12-.11-.1-7.1-7.1-.1-.11-7.1-7.07-.1-.19-7.14-14.24-.02-.07-7.11-7.09-.08-.19,7.17-7.05.08-.1,14.31-7.13.11-.03,43.08-7.18.21v64.53s7.18.18,7.18.18l.04,21.44,7.16.19.07,7.08,7.11-.02.11-7.12,7.09-.11.12-7.12,14.29-.05.07-7.13,21.51-.07.14-7.15,14.28-.05.07-7.14,28.7-.05.15-7.17h28.59s.17-7.17.17-7.17l21.5-.07.04-7.13Z"/>
</svg>